
<svg width="400" height="600" xmlns="http://www.w3.org/2000/svg">
  <path d="M0.0 0 L10.0 20 L20.0 0 L30.0 20 L40.0 0 L50.0 20 L60.0 0 L70.0 20 L80.0 0 L90.0 20 L100.0 0 L110.0 20 L120.0 0 L130.0 20 L140.0 0 L150.0 20 L160.0 0 L170.0 20 L180.0 0 L190.0 20 L200.0 0 L210.0 20 L220.0 0 L230.0 20 L240.0 0 L250.0 20 L260.0 0 L270.0 20 L280.0 0 L290.0 20 L300.0 0 L310.0 20 L320.0 0 L330.0 20 L340.0 0 L350.0 20 L360.0 0 L370.0 20 L380.0 0 L390.0 20 L400.0 0 L400 0.0 L380 10.0 L400 20.0 L380 30.0 L400 40.0 L380 50.0 L400 60.0 L380 70.0 L400 80.0 L380 90.0 L400 100.0 L380 110.0 L400 120.0 L380 130.0 L400 140.0 L380 150.0 L400 160.0 L380 170.0 L400 180.0 L380 190.0 L400 200.0 L380 210.0 L400 220.0 L380 230.0 L400 240.0 L380 250.0 L400 260.0 L380 270.0 L400 280.0 L380 290.0 L400 300.0 L380 310.0 L400 320.0 L380 330.0 L400 340.0 L380 350.0 L400 360.0 L380 370.0 L400 380.0 L380 390.0 L400 400.0 L380 410.0 L400 420.0 L380 430.0 L400 440.0 L380 450.0 L400 460.0 L380 470.0 L400 480.0 L380 490.0 L400 500.0 L380 510.0 L400 520.0 L380 530.0 L400 540.0 L380 550.0 L400 560.0 L380 570.0 L400 580.0 L380 590.0 L400 600.0 L400.0 600 L390.0 580 L380.0 600 L370.0 580 L360.0 600 L350.0 580 L340.0 600 L330.0 580 L320.0 600 L310.0 580 L300.0 600 L290.0 580 L280.0 600 L270.0 580 L260.0 600 L250.0 580 L240.0 600 L230.0 580 L220.0 600 L210.0 580 L200.0 600 L190.0 580 L180.0 600 L170.0 580 L160.0 600 L150.0 580 L140.0 600 L130.0 580 L120.0 600 L110.0 580 L100.0 600 L90.0 580 L80.0 600 L70.0 580 L60.0 600 L50.0 580 L40.0 600 L30.0 580 L20.0 600 L10.0 580 L0 600.0 L20 590.0 L0 580.0 L20 570.0 L0 560.0 L20 550.0 L0 540.0 L20 530.0 L0 520.0 L20 510.0 L0 500.0 L20 490.0 L0 480.0 L20 470.0 L0 460.0 L20 450.0 L0 440.0 L20 430.0 L0 420.0 L20 410.0 L0 400.0 L20 390.0 L0 380.0 L20 370.0 L0 360.0 L20 350.0 L0 340.0 L20 330.0 L0 320.0 L20 310.0 L0 300.0 L20 290.0 L0 280.0 L20 270.0 L0 260.0 L20 250.0 L0 240.0 L20 230.0 L0 220.0 L20 210.0 L0 200.0 L20 190.0 L0 180.0 L20 170.0 L0 160.0 L20 150.0 L0 140.0 L20 130.0 L0 120.0 L20 110.0 L0 100.0 L20 90.0 L0 80.0 L20 70.0 L0 60.0 L20 50.0 L0 40.0 L20 30.0 L0 20.0 L20 10.0 L0 0.0" fill="none" stroke="black" />
</svg>
