
<svg width="400" height="600" xmlns="http://www.w3.org/2000/svg">
  <path d="M0.0 0 L20.0 10 L40.0 0 L60.0 10 L80.0 0 L100.0 10 L120.0 0 L140.0 10 L160.0 0 L180.0 10 L200.0 0 L220.0 10 L240.0 0 L260.0 10 L280.0 0 L300.0 10 L320.0 0 L340.0 10 L360.0 0 L380.0 10 L400.0 0 L400 0.0 L390 20.0 L400 40.0 L390 60.0 L400 80.0 L390 100.0 L400 120.0 L390 140.0 L400 160.0 L390 180.0 L400 200.0 L390 220.0 L400 240.0 L390 260.0 L400 280.0 L390 300.0 L400 320.0 L390 340.0 L400 360.0 L390 380.0 L400 400.0 L390 420.0 L400 440.0 L390 460.0 L400 480.0 L390 500.0 L400 520.0 L390 540.0 L400 560.0 L390 580.0 L400 600.0 L400.0 600 L380.0 590 L360.0 600 L340.0 590 L320.0 600 L300.0 590 L280.0 600 L260.0 590 L240.0 600 L220.0 590 L200.0 600 L180.0 590 L160.0 600 L140.0 590 L120.0 600 L100.0 590 L80.0 600 L60.0 590 L40.0 600 L20.0 590 L0 600.0 L10 580.0 L0 560.0 L10 540.0 L0 520.0 L10 500.0 L0 480.0 L10 460.0 L0 440.0 L10 420.0 L0 400.0 L10 380.0 L0 360.0 L10 340.0 L0 320.0 L10 300.0 L0 280.0 L10 260.0 L0 240.0 L10 220.0 L0 200.0 L10 180.0 L0 160.0 L10 140.0 L0 120.0 L10 100.0 L0 80.0 L10 60.0 L0 40.0 L10 20.0 L0 0.0" fill="none" stroke="black" />
</svg>
