
<svg width="400" height="600" xmlns="http://www.w3.org/2000/svg">
  <path d="M0.0 0 L30.76923076923077 20 L61.53846153846154 0 L92.3076923076923 20 L123.07692307692308 0 L153.84615384615384 20 L184.6153846153846 0 L215.3846153846154 20 L246.15384615384616 0 L276.9230769230769 20 L307.6923076923077 0 L338.46153846153845 20 L369.2307692307692 0 L400.0 20 L400 0.0 L360 30.0 L400 60.0 L360 90.0 L400 120.0 L360 150.0 L400 180.0 L360 210.0 L400 240.0 L360 270.0 L400 300.0 L360 330.0 L400 360.0 L360 390.0 L400 420.0 L360 450.0 L400 480.0 L360 510.0 L400 540.0 L360 570.0 L400 600.0 L400.0 600 L369.2307692307692 580 L338.46153846153845 600 L307.6923076923077 580 L276.9230769230769 600 L246.15384615384616 580 L215.3846153846154 600 L184.6153846153846 580 L153.84615384615384 600 L123.07692307692308 580 L92.3076923076923 600 L61.53846153846154 580 L30.76923076923077 600 L0 600.0 L40 570.0 L0 540.0 L40 510.0 L0 480.0 L40 450.0 L0 420.0 L40 390.0 L0 360.0 L40 330.0 L0 300.0 L40 270.0 L0 240.0 L40 210.0 L0 180.0 L40 150.0 L0 120.0 L40 90.0 L0 60.0 L40 30.0 L0 0.0" fill="none" stroke="black" />
</svg>
